<?xml version="1.0" encoding="UTF-8" standalone="no"?>
<!-- Created with Inkscape (http://www.inkscape.org/) -->

<svg
   xmlns:dc="http://purl.org/dc/elements/1.1/"
   xmlns:cc="http://creativecommons.org/ns#"
   xmlns:rdf="http://www.w3.org/1999/02/22-rdf-syntax-ns#"
   xmlns:svg="http://www.w3.org/2000/svg"
   xmlns="http://www.w3.org/2000/svg"
   xmlns:sodipodi="http://sodipodi.sourceforge.net/DTD/sodipodi-0.dtd"
   xmlns:inkscape="http://www.inkscape.org/namespaces/inkscape"
   width="48pt"
   height="48pt"
   viewBox="0 0 16.933334 16.933333"
   version="1.1"
   id="svg979"
   inkscape:version="0.92.4 (5da689c313, 2019-01-14)"
   sodipodi:docname="30 - Necklace.svg"
   inkscape:export-filename="E:\TR Design Studio Creative\Project Design\TR Creative Design\Icon Design\Project Hiring\Icon Icons\Project - 001\002 - Beauty And Fashion\Send\2 - Solid\30 - Necklace.png"
   inkscape:export-xdpi="768"
   inkscape:export-ydpi="768">
  <defs
     id="defs973">
    <pattern
       y="0"
       x="0"
       height="6"
       width="6"
       patternUnits="userSpaceOnUse"
       id="EMFhbasepattern" />
    <pattern
       y="0"
       x="0"
       height="6"
       width="6"
       patternUnits="userSpaceOnUse"
       id="EMFhbasepattern-5" />
    <pattern
       y="0"
       x="0"
       height="6"
       width="6"
       patternUnits="userSpaceOnUse"
       id="EMFhbasepattern-9" />
    <pattern
       y="0"
       x="0"
       height="6"
       width="6"
       patternUnits="userSpaceOnUse"
       id="EMFhbasepattern-6" />
    <pattern
       y="0"
       x="0"
       height="6"
       width="6"
       patternUnits="userSpaceOnUse"
       id="EMFhbasepattern-0" />
    <pattern
       y="0"
       x="0"
       height="6"
       width="6"
       patternUnits="userSpaceOnUse"
       id="EMFhbasepattern-4" />
    <pattern
       y="0"
       x="0"
       height="6"
       width="6"
       patternUnits="userSpaceOnUse"
       id="EMFhbasepattern-1" />
    <pattern
       y="0"
       x="0"
       height="6"
       width="6"
       patternUnits="userSpaceOnUse"
       id="EMFhbasepattern-8" />
    <pattern
       y="0"
       x="0"
       height="6"
       width="6"
       patternUnits="userSpaceOnUse"
       id="EMFhbasepattern-82" />
    <pattern
       y="0"
       x="0"
       height="6"
       width="6"
       patternUnits="userSpaceOnUse"
       id="EMFhbasepattern-58" />
    <pattern
       y="0"
       x="0"
       height="6"
       width="6"
       patternUnits="userSpaceOnUse"
       id="EMFhbasepattern-97" />
  </defs>
  <sodipodi:namedview
     id="base"
     pagecolor="#ffffff"
     bordercolor="#666666"
     borderopacity="1.0"
     inkscape:pageopacity="0.0"
     inkscape:pageshadow="2"
     inkscape:zoom="8.546875"
     inkscape:cx="32"
     inkscape:cy="32"
     inkscape:document-units="pt"
     inkscape:current-layer="layer1"
     showgrid="false"
     units="pt"
     inkscape:window-width="1366"
     inkscape:window-height="716"
     inkscape:window-x="-8"
     inkscape:window-y="-8"
     inkscape:window-maximized="1"
     inkscape:snap-bbox="true"
     inkscape:bbox-nodes="true"
     inkscape:snap-nodes="false"
     showguides="false">
    <inkscape:grid
       type="xygrid"
       id="grid1526" />
    <sodipodi:guide
       position="0.97013909,15.963209"
       orientation="56.666615,0"
       id="guide1528"
       inkscape:locked="false" />
    <sodipodi:guide
       position="0.97013909,0.97016731"
       orientation="0,56.666667"
       id="guide1530"
       inkscape:locked="false" />
    <sodipodi:guide
       position="15.963195,0.97016731"
       orientation="-56.666615,0"
       id="guide1532"
       inkscape:locked="false" />
    <sodipodi:guide
       position="15.963195,15.963209"
       orientation="0,-56.666667"
       id="guide1534"
       inkscape:locked="false" />
  </sodipodi:namedview>
  <metadata
     id="metadata976">
    <rdf:RDF>
      <cc:Work
         rdf:about="">
        <dc:format>image/svg+xml</dc:format>
        <dc:type
           rdf:resource="http://purl.org/dc/dcmitype/StillImage" />
        <dc:title></dc:title>
      </cc:Work>
    </rdf:RDF>
  </metadata>
  <g
     inkscape:label="Layer 1"
     inkscape:groupmode="layer"
     id="layer1"
     transform="translate(0,-280.06668)">
    <path
       style="color:#000000;font-style:normal;font-variant:normal;font-weight:normal;font-stretch:normal;font-size:medium;line-height:normal;font-family:sans-serif;font-variant-ligatures:normal;font-variant-position:normal;font-variant-caps:normal;font-variant-numeric:normal;font-variant-alternates:normal;font-feature-settings:normal;text-indent:0;text-align:start;text-decoration:none;text-decoration-line:none;text-decoration-style:solid;text-decoration-color:#000000;letter-spacing:normal;word-spacing:normal;text-transform:none;writing-mode:lr-tb;direction:ltr;text-orientation:mixed;dominant-baseline:auto;baseline-shift:baseline;text-anchor:start;white-space:normal;shape-padding:0;clip-rule:nonzero;display:inline;overflow:visible;visibility:visible;opacity:1;isolation:auto;mix-blend-mode:normal;color-interpolation:sRGB;color-interpolation-filters:linearRGB;solid-color:#000000;solid-opacity:1;vector-effect:none;fill:#000000;fill-opacity:1;fill-rule:nonzero;stroke:none;stroke-width:0.52916801;stroke-linecap:round;stroke-linejoin:round;stroke-miterlimit:4;stroke-dasharray:none;stroke-dashoffset:0;stroke-opacity:1;color-rendering:auto;image-rendering:auto;shape-rendering:auto;text-rendering:auto;enable-background:accumulate"
       d="m 8.4677534,281.0368 c -1.5790881,2e-5 -2.7515886,0.24144 -3.6079501,0.6681 -0.8563616,0.42664 -1.3914694,1.04928 -1.6505806,1.74883 -0.5182222,1.39911 0.00454,3.0178 0.6801342,4.23801 0.086788,0.15647 0.2838539,0.21318 0.4405376,0.12676 0.1567064,-0.0866 0.2137115,-0.28367 0.1274039,-0.44053 -0.623259,-1.12575 -1.047443,-2.59548 -0.639567,-3.69669 0.2039397,-0.5506 0.6004439,-1.03205 1.3317479,-1.3964 0.7313009,-0.36433 1.806161,-0.599 3.3182741,-0.599 1.5121099,0 2.5844356,0.23467 3.3157366,0.599 0.731304,0.36435 1.127808,0.8458 1.331748,1.3964 0.407875,1.10121 -0.01376,2.57094 -0.637032,3.69669 -0.08682,0.15602 -0.03131,0.35287 0.124236,0.44053 0.157265,0.0882 0.356226,0.0313 0.443069,-0.12676 0.675557,-1.22021 1.196458,-2.8389 0.678235,-4.23801 -0.259111,-0.69955 -0.794219,-1.32219 -1.650581,-1.74883 -0.85257,-0.42478 -2.016633,-0.66531 -3.585128,-0.66746 -0.00675,-3.3e-4 -0.013533,-6.5e-4 -0.020283,-6.5e-4 z m -3.3068665,7.14237 c -0.402836,0.0329 -0.7454053,0.34559 -0.7993012,0.76064 -0.061611,0.47435 0.2760033,0.91752 0.7498611,0.9825 0.1496054,0.0205 0.2946902,-0.004 0.4278578,-0.0552 -0.00292,0.0162 -0.00925,0.031 -0.01142,0.0475 -0.061611,0.47434 0.2785379,0.91753 0.7523959,0.98249 0.1255897,0.0172 0.2481969,0.004 0.3632034,-0.0304 0.00448,0.42642 0.319803,0.80267 0.7530287,0.86206 0.4737767,0.0649 0.9205388,-0.27538 0.9838952,-0.75836 0.063356,-0.48297 -0.2815302,-0.92359 -0.7562773,-0.98159 v 6.5e-4 c -0.1217768,-0.0148 -0.240911,-0.004 -0.3524288,0.0298 -0.00765,-0.43184 -0.3303796,-0.80817 -0.7663411,-0.86142 -0.1454515,-0.0178 -0.2859829,0.006 -0.4151816,0.0552 0.00548,-0.0191 0.00857,-0.0355 0.012722,-0.0526 0.05522,-0.4788 -0.2915811,-0.91943 -0.7663412,-0.97742 -0.059338,-0.007 -0.1180308,-0.009 -0.1755815,-0.004 z m 6.6111941,6.5e-4 c -0.05761,-0.005 -0.116242,-0.004 -0.175581,0.004 -0.47476,0.058 -0.819662,0.49862 -0.764439,0.97742 0.0029,0.0194 0.0076,0.0367 0.01077,0.052 -0.128455,-0.0489 -0.268442,-0.0721 -0.41328,-0.0545 -0.4360359,0.0532 -0.7581593,0.43013 -0.7657081,0.86205 -0.1116733,-0.0332 -0.2310871,-0.0453 -0.3530615,-0.0304 -0.4747471,0.058 -0.81964,0.49861 -0.7575787,0.98128 0.062061,0.48266 0.5088236,0.82289 0.9826004,0.75804 0.433164,-0.0594 0.7506339,-0.43507 0.7555669,-0.86142 0.115049,0.0346 0.237876,0.047 0.363203,0.0298 0.473858,-0.065 0.811468,-0.50752 0.749858,-0.98186 -0.0023,-0.0167 -0.0083,-0.0318 -0.0114,-0.0482 0.133262,0.0519 0.278748,0.0757 0.42849,0.0552 0.473859,-0.065 0.814005,-0.50751 0.752397,-0.98186 -0.05388,-0.41506 -0.398543,-0.72776 -0.801836,-0.76064 z m -2.2888808,3.89382 c -0.335806,-0.0156 -0.6960982,0.12413 -0.9774174,0.42406 l -0.043102,0.0431 -0.047538,-0.0482 c -0.2420176,-0.24873 -0.5758763,-0.38894 -0.9229048,-0.38792 -0.5593444,0.002 -1.0034388,0.3573 -1.1834243,0.80246 -0.1799856,0.44515 -0.1058187,1.00597 0.2947486,1.3964 l -0.00444,-0.002 1.6315658,1.63347 c 0.1268133,0.1271 0.3327358,0.1271 0.4595491,0 l 1.6271258,-1.62649 c 0.299929,-0.28132 0.43714,-0.64415 0.42152,-0.97996 -0.01561,-0.33581 -0.168724,-0.63588 -0.392996,-0.86015 -0.224269,-0.22427 -0.5268809,-0.37928 -0.8626868,-0.39489 z"
       id="path1447"
       inkscape:connector-curvature="0"
       sodipodi:nodetypes="ccscccccscccccscccccccccccccccccccccccccccccccccccccccccccccccccccccc" />
  </g>
</svg>
