<svg width="24" height="24" viewBox="0 0 24 24" fill="none" xmlns="http://www.w3.org/2000/svg">
<rect width="24" height="24" fill="#F5F5F5"/>
<rect width="1920" height="1080" transform="translate(-1424 -68.5)" fill="white"/>
<g clip-path="url(#clip0_0_1)">
<path d="M12 22.4104C11.6725 22.4104 11.3569 22.2918 11.1108 22.0763C10.1817 21.2639 9.28589 20.5004 8.49555 19.8269L8.49152 19.8234C6.17436 17.8487 4.17341 16.1435 2.78118 14.4636C1.22489 12.5857 0.5 10.8052 0.5 8.86C0.5 6.97013 1.14803 5.2266 2.3246 3.95037C3.5152 2.65904 5.14888 1.94784 6.92522 1.94784C8.25287 1.94784 9.46874 2.36758 10.539 3.19529C11.0791 3.6131 11.5687 4.12444 12 4.72088C12.4315 4.12444 12.9209 3.6131 13.4612 3.19529C14.5314 2.36758 15.7473 1.94784 17.0749 1.94784C18.8511 1.94784 20.4849 2.65904 21.6755 3.95037C22.8521 5.2266 23.5 6.97013 23.5 8.86C23.5 10.8052 22.7752 12.5857 21.2189 14.4635C19.8267 16.1435 17.8259 17.8486 15.5091 19.823C14.7174 20.4976 13.8202 21.2623 12.8889 22.0767C12.6431 22.2918 12.3272 22.4104 12 22.4104ZM6.92522 3.29514C5.52966 3.29514 4.24764 3.8521 3.31498 4.86354C2.36847 5.89025 1.84713 7.3095 1.84713 8.86C1.84713 10.496 2.45515 11.9591 3.81842 13.604C5.13607 15.194 7.09596 16.8642 9.36521 18.7981L9.36942 18.8016C10.1627 19.4777 11.0621 20.2442 11.998 21.0626C12.9396 20.2426 13.8404 19.4749 14.6353 18.7977C16.9043 16.8638 18.8641 15.194 20.1817 13.604C21.5448 11.9591 22.1528 10.496 22.1528 8.86C22.1528 7.3095 21.6315 5.89025 20.685 4.86354C19.7525 3.8521 18.4703 3.29514 17.0749 3.29514C16.0526 3.29514 15.114 3.62012 14.2852 4.26096C13.5466 4.83231 13.0321 5.55457 12.7305 6.05994C12.5754 6.31982 12.3023 6.47494 12 6.47494C11.6976 6.47494 11.4246 6.31982 11.2695 6.05994C10.968 5.55457 10.4535 4.83231 9.71476 4.26096C8.88598 3.62012 7.94737 3.29514 6.92522 3.29514Z" fill="black"/>
</g>
<defs>
<clipPath id="clip0_0_1">
<rect width="23" height="23" fill="white" transform="translate(0.5 0.690002)"/>
</clipPath>
</defs>
</svg>
