<svg width="21" height="21" viewBox="0 0 21 21" fill="none" xmlns="http://www.w3.org/2000/svg">
<g clip-path="url(#clip0_1_22)">
<g clip-path="url(#clip1_1_22)">
<path d="M20.1434 16.3312C20.0069 14.9137 18.379 13.7764 18.202 13.6574C18.0269 13.532 16.451 12.4354 15.055 12.4354C14.4651 12.4354 13.9719 12.6193 13.5737 12.9971L13.5357 13.0381C13.0761 13.5761 12.1467 14.3721 11.6116 14.3721C11.5758 14.3721 11.5452 14.368 11.5174 14.359C11.2145 14.1363 9.71739 13.0217 8.7263 12.0302C7.92989 11.2338 6.6456 9.56414 6.38728 9.22582C6.25263 8.7916 7.05013 7.76656 7.7197 7.18762L7.7572 7.1507C9.2545 5.5691 7.17677 2.66773 7.09599 2.55695C7.04228 2.47676 5.76189 0.59 4.21978 0.59C3.68935 0.59 3.2104 0.796641 2.82169 1.18086C2.64169 1.32859 -1.55686 4.8559 0.979153 10.0457C1.10579 10.3061 1.26396 10.5684 1.47657 10.8716C2.09896 11.7605 3.71114 13.9923 5.23775 15.5187C6.68712 16.9683 8.95622 18.6186 9.86454 19.2605C10.1762 19.4811 10.4467 19.6444 10.716 19.7757C11.8274 20.3162 12.9487 20.59 14.0488 20.59C17.2886 20.59 19.2819 18.2683 19.555 17.93C19.9966 17.473 20.2001 16.9206 20.1434 16.3312ZM18.996 17.4092L18.9695 17.4311C18.7752 17.6755 16.9859 19.8101 14.0488 19.8101H14.048C13.0651 19.8101 12.0565 19.57 11.0502 19.0806C10.8192 18.9684 10.5827 18.8287 10.3057 18.6328C9.41341 18.002 7.18572 16.3848 5.7779 14.9766C4.29404 13.4927 2.71314 11.3048 2.10232 10.4323C1.91302 10.1626 1.77443 9.93375 1.66568 9.71031C-0.569832 5.1352 2.90282 2.10242 3.33181 1.74832C3.60189 1.48273 3.89228 1.35383 4.21978 1.35383C5.16466 1.35383 6.15802 2.52922 6.46946 2.99402C6.97321 3.68711 8.08689 5.69109 7.2049 6.62324C7.12169 6.69523 5.17173 8.39809 5.70329 9.57273L5.74732 9.6466C5.90493 9.85363 7.31236 11.6968 8.18614 12.5704C9.27087 13.6551 10.9202 14.8689 11.1049 15.0039L11.1703 15.0423C11.3052 15.1046 11.4538 15.136 11.612 15.136C12.7354 15.136 14.0607 13.5995 14.114 13.5368C14.3505 13.3127 14.667 13.1993 15.055 13.1993C16.233 13.1993 17.6962 14.2348 17.7663 14.2848C17.7815 14.2948 19.2782 15.3169 19.3828 16.4043C19.4188 16.7784 19.2924 17.1071 18.996 17.4092Z" fill="black"/>
</g>
</g>
<defs>
<clipPath id="clip0_1_22">
<rect width="20" height="20" fill="white" transform="translate(0.159973 0.59)"/>
</clipPath>
<clipPath id="clip1_1_22">
<rect width="20" height="20" fill="white" transform="translate(0.159973 0.59)"/>
</clipPath>
</defs>
</svg>
