<svg width="24" height="24" viewBox="0 0 24 24" fill="none" xmlns="http://www.w3.org/2000/svg">
<g clip-path="url(#clip0_1_76)">
<g clip-path="url(#clip1_1_76)">
<g clip-path="url(#clip2_1_76)">
<path d="M23.1586 9.00347C22.8548 8.62245 22.3992 8.40386 21.9084 8.40386H17.4789L15.077 2.90394C14.9281 2.56293 14.5309 2.4071 14.1898 2.55611C13.8488 2.70502 13.693 3.10227 13.842 3.44331L16.0083 8.4039H7.99167L10.158 3.44331C10.3069 3.10227 10.1512 2.70507 9.8102 2.55611C9.46919 2.4071 9.07195 2.56284 8.92303 2.90394L6.52111 8.4039H2.09163C1.60081 8.4039 1.14517 8.62245 0.841454 9.00352C0.543308 9.37763 0.433294 9.85856 0.539624 10.3231L2.90508 20.6552C3.07025 21.3766 3.70846 21.8805 4.45708 21.8805H19.5429C20.2915 21.8805 20.9298 21.3766 21.0949 20.6552L23.4604 10.3231C23.5667 9.85852 23.4567 9.37758 23.1586 9.00347ZM19.5429 20.5328H4.45708C4.34266 20.5328 4.24244 20.4577 4.21877 20.3543L1.85332 10.0224C1.83477 9.94131 1.8659 9.8803 1.89537 9.84342C1.92268 9.8091 1.98454 9.75156 2.09163 9.75156H5.93258L5.75609 10.1557C5.60717 10.4968 5.76287 10.894 6.10392 11.0429C6.19169 11.0813 6.28315 11.0994 6.37322 11.0994C6.63296 11.0994 6.88048 10.9484 6.99108 10.6951L7.40315 9.75165H16.5969L17.009 10.6951C17.1196 10.9484 17.3671 11.0994 17.6269 11.0994C17.7169 11.0994 17.8084 11.0813 17.8962 11.0429C18.2372 10.894 18.393 10.4968 18.244 10.1557L18.0675 9.75156H21.9085C22.0156 9.75156 22.0774 9.8091 22.1047 9.84342C22.1342 9.88035 22.1653 9.94135 22.1468 10.0223L19.7813 20.3544C19.7576 20.4577 19.6573 20.5328 19.5429 20.5328Z" fill="black"/>
<path d="M7.95703 12.6714C7.5849 12.6714 7.2832 12.9731 7.2832 13.3453V18.2867C7.2832 18.6588 7.5849 18.9605 7.95703 18.9605C8.32916 18.9605 8.63086 18.6588 8.63086 18.2867V13.3453C8.63086 12.9731 8.32921 12.6714 7.95703 12.6714Z" fill="black"/>
<path d="M12 12.6714C11.6279 12.6714 11.3262 12.9731 11.3262 13.3453V18.2867C11.3262 18.6588 11.6279 18.9605 12 18.9605C12.3721 18.9605 12.6738 18.6588 12.6738 18.2867V13.3453C12.6738 12.9731 12.3721 12.6714 12 12.6714Z" fill="black"/>
<path d="M16.043 12.6714C15.6708 12.6714 15.3691 12.9731 15.3691 13.3453V18.2867C15.3691 18.6588 15.6708 18.9605 16.043 18.9605C16.4151 18.9605 16.7168 18.6588 16.7168 18.2867V13.3453C16.7168 12.9731 16.4151 12.6714 16.043 12.6714Z" fill="black"/>
</g>
</g>
</g>
<defs>
<clipPath id="clip0_1_76">
<rect width="23" height="23" fill="white" transform="translate(0.5 0.690002)"/>
</clipPath>
<clipPath id="clip1_1_76">
<rect width="23" height="23" fill="white" transform="translate(0.5 0.690002)"/>
</clipPath>
<clipPath id="clip2_1_76">
<rect width="23" height="23" fill="white" transform="translate(0.5 0.690002)"/>
</clipPath>
</defs>
</svg>
